<svg id="Layer_4" data-name="Layer 4" xmlns="http://www.w3.org/2000/svg" viewBox="0 0 165.4 59.89"><defs><style>.cls-1{fill:#fff8e5;}</style></defs><path class="cls-1" d="M112.19,55.15a4.19,4.19,0,1,0,4.19,4.19A4.19,4.19,0,0,0,112.19,55.15Z" transform="translate(-6.69 -3.64)"/><path class="cls-1" d="M129.76,34.15a9.4,9.4,0,1,0,9.4,9.4A9.4,9.4,0,0,0,129.76,34.15Z" transform="translate(-6.69 -3.64)"/><path class="cls-1" d="M156.67,3.64a15.42,15.42,0,1,0,15.42,15.42A15.42,15.42,0,0,0,156.67,3.64Z" transform="translate(-6.69 -3.64)"/><path class="cls-1" d="M75.74,15.49l-2.8,8.33h1.13l.74-2.29H78l.8,2.29h1.21l-2.9-8.33Zm.69,1h0Zm-1.3,4,1.26-3.87,1.31,3.87Z" transform="translate(-6.69 -3.64)"/><path class="cls-1" d="M95.14,21.53l.8,2.29h1.2l-2.89-8.33H92.83L90,23.82h1.13l.74-2.29Zm-1.61-5h0Zm0,.15,1.3,3.87H92.23Z" transform="translate(-6.69 -3.64)"/><polygon class="cls-1" points="107.28 19.18 103 19.18 103 16.34 106.38 16.34 106.38 15.32 103 15.32 103 12.93 107.28 12.93 107.28 11.92 101.84 11.92 101.84 20.18 107.28 20.18 107.28 19.18"/><rect class="cls-1" x="121.56" y="11.92" width="1.16" height="8.26"/><polygon class="cls-1" points="114.78 18.64 116.82 13.24 116.91 14.16 117.49 20.18 118.58 20.18 117.77 11.92 116.18 11.92 114.28 17.07 112.37 11.92 110.79 11.92 109.97 20.18 111.06 20.18 111.64 14.16 111.73 13.24 113.77 18.64 114.78 18.64"/><path class="cls-1" d="M104.71,23.21a2.77,2.77,0,0,0,.69-2.09V18.2a2.68,2.68,0,0,0-.68-2,2.65,2.65,0,0,0-1.92-.62H99.34v8.26h3.44A2.69,2.69,0,0,0,104.71,23.21Zm-4.21-.38V16.56h2.2c1.11,0,1.52.49,1.54,1.74v2.78c0,1.29-.36,1.72-1.53,1.75Z" transform="translate(-6.69 -3.64)"/><polygon class="cls-1" points="22.32 15.33 18.25 15.33 18.25 11.92 17.09 11.92 17.09 20.18 18.25 20.18 18.25 16.34 22.32 16.34 22.32 20.18 23.48 20.18 23.48 11.92 22.32 11.92 22.32 15.33"/><polygon class="cls-1" points="29.04 18.68 29.01 18.82 28.98 18.69 26.82 11.92 25.6 11.92 28.37 20.18 29.55 20.18 32.39 11.92 31.29 11.92 29.04 18.68"/><polygon class="cls-1" points="53.92 18.68 53.89 18.82 53.86 18.69 51.7 11.92 50.48 11.92 53.25 20.18 54.43 20.18 57.28 11.92 56.17 11.92 53.92 18.68"/><path class="cls-1" d="M69.42,19.36l-1.85-.54c-.56-.17-.93-.26-.92-.71v-.67a.82.82,0,0,1,.89-.87h3.39v-.64c0-.32-.32-.37-.72-.37h-2.6a2,2,0,0,0-1.58.61,1.83,1.83,0,0,0-.5,1.27v.81c0,1,.59,1.36,1.74,1.65l1.92.55c.58.17.85.29.85.76v.35a1.12,1.12,0,0,1-1.14,1.25H65.52v.64c0,.27.23.37.48.37h2.9a2.33,2.33,0,0,0,1.63-.51,2.25,2.25,0,0,0,.64-1.71v-.55C71.18,20,70.47,19.66,69.42,19.36Z" transform="translate(-6.69 -3.64)"/><polygon class="cls-1" points="34.51 20.18 39.95 20.18 39.95 19.18 35.67 19.18 35.67 16.34 39.05 16.34 39.05 15.32 35.67 15.32 35.67 12.93 39.95 12.93 39.95 11.92 34.51 11.92 34.51 20.18"/><path class="cls-1" d="M53.34,20.52a1.69,1.69,0,0,0,1.84-1.8V17.4A1.76,1.76,0,0,0,54.67,16a2.23,2.23,0,0,0-1.54-.45H49.36v8.26h1.16v-3.3h1.39l2.24,3.3h1.38l-2.28-3.3Zm-2.82-1v-3H52.8c1,0,1.2.12,1.23.91v1.05c0,.84-.19,1-1.12,1Z" transform="translate(-6.69 -3.64)"/><polygon class="cls-1" points="0 20.18 5.44 20.18 5.44 19.18 1.16 19.18 1.16 16.34 4.54 16.34 4.54 15.32 1.16 15.32 1.16 12.93 5.44 12.93 5.44 11.92 0 11.92 0 20.18"/><path class="cls-1" d="M18.83,20.52a1.69,1.69,0,0,0,1.84-1.8V17.4A1.76,1.76,0,0,0,20.16,16a2.23,2.23,0,0,0-1.54-.45H14.85v8.26H16v-3.3H17.4l2.24,3.3H21l-2.28-3.3Zm-2.82-1v-3h2.28c1,0,1.2.12,1.23.91v1.05c0,.84-.19,1-1.12,1Z" transform="translate(-6.69 -3.64)"/><polygon class="cls-1" points="80.53 20.18 81.81 20.18 78.86 15.85 81.72 11.92 80.34 11.92 77.78 15.43 76.8 15.43 76.8 11.92 75.63 11.92 75.63 20.18 76.8 20.18 76.8 16.45 77.85 16.45 80.53 20.18"/><path class="cls-1" d="M74.62,37.47l.79,2.29h1.21l-2.9-8.33H72.31l-2.8,8.33h1.14l.73-2.29Zm-1.61-5h0Zm-.05.15,1.31,3.87H71.71Z" transform="translate(-6.69 -3.64)"/><path class="cls-1" d="M66.13,37.47l.79,2.29h1.21l-2.9-8.33H63.82L61,39.76h1.14l.74-2.29Zm-1.61-5h0Zm0,.15,1.31,3.87H63.22Z" transform="translate(-6.69 -3.64)"/><path class="cls-1" d="M110.56,35.3l-1.86-.55c-.55-.17-.93-.25-.92-.71v-.67a.83.83,0,0,1,.89-.87h3.39v-.64c0-.31-.32-.37-.72-.37h-2.59a2,2,0,0,0-1.59.62,1.82,1.82,0,0,0-.5,1.26v.81c0,1,.59,1.37,1.75,1.66l1.92.55c.57.17.85.29.85.76v.34A1.12,1.12,0,0,1,110,38.75h-3.38v.64c0,.27.23.37.48.37H110a2,2,0,0,0,2.26-2.22V37C112.32,35.93,111.6,35.59,110.56,35.3Z" transform="translate(-6.69 -3.64)"/><path class="cls-1" d="M102.53,37.38c0,.91-.41,1.47-1.3,1.48H99.9c-.89,0-1.29-.57-1.3-1.48V31.5H97.44v5.93a2.43,2.43,0,0,0,.69,1.88,2.56,2.56,0,0,0,1.8.59h1.24a2.24,2.24,0,0,0,2.48-2.52V31.5h-1.12Z" transform="translate(-6.69 -3.64)"/><polygon class="cls-1" points="86.29 31.27 82.22 31.27 82.22 27.86 81.06 27.86 81.06 36.13 82.22 36.13 82.22 32.28 86.29 32.28 86.29 36.13 87.45 36.13 87.45 27.86 86.29 27.86 86.29 31.27"/><path class="cls-1" d="M82.8,36.46a1.69,1.69,0,0,0,1.84-1.8V33.34a1.76,1.76,0,0,0-.5-1.39,2.26,2.26,0,0,0-1.55-.45H78.82v8.26H80v-3.3h1.39l2.24,3.3H85l-2.29-3.3Zm-2.82-1v-3h2.28c1,0,1.21.12,1.23.91v1c0,.84-.18,1-1.12,1Z" transform="translate(-6.69 -3.64)"/></svg>